<?xml version="1.0" encoding="utf-8"?>
<!-- Generator: Adobe Illustrator 27.5.0, SVG Export Plug-In . SVG Version: 6.00 Build 0)  -->
<svg version="1.1" xmlns="http://www.w3.org/2000/svg" xmlns:xlink="http://www.w3.org/1999/xlink" x="0px" y="0px"
	 viewBox="0 0 500 500" style="enable-background:new 0 0 500 500;" xml:space="preserve">
<g id="Background_Simple">
	<g>
		<path style="fill:#92E3A9;" d="M326.507,36.09c0,0-78.621-30.02-154.398,13.843C96.332,93.796,59.377,183.088,27.543,254.572
			c-31.834,71.484-11.32,145.229,47.824,179.83c59.143,34.6,97.986-13.939,180.015-14.735
			c82.029-0.795,104.332,11.678,171.531-34.573c67.198-46.251,77.367-158.387,22.058-242.589
			C393.66,58.302,326.507,36.09,326.507,36.09z"/>
		<path style="opacity:0.7;fill:#FFFFFF;" d="M326.507,36.09c0,0-78.621-30.02-154.398,13.843
			C96.332,93.796,59.377,183.088,27.543,254.572c-31.834,71.484-11.32,145.229,47.824,179.83
			c59.143,34.6,97.986-13.939,180.015-14.735c82.029-0.795,104.332,11.678,171.531-34.573
			c67.198-46.251,77.367-158.387,22.058-242.589C393.66,58.302,326.507,36.09,326.507,36.09z"/>
	</g>
</g>
<g id="Lamps">
	<g>
		<path style="fill:none;stroke:#263238;stroke-linejoin:round;stroke-miterlimit:10;" d="M451.551,57.591
			c0,3.203-2.597,5.8-5.8,5.8c-3.203,0-5.8-2.597-5.8-5.8c0-3.203,2.597-5.8,5.8-5.8C448.955,51.791,451.551,54.388,451.551,57.591z
			"/>
		<path style="fill:none;stroke:#263238;stroke-linejoin:round;stroke-miterlimit:10;" d="M460.155,100.519h-28.807V77.793
			c0-7.955,6.448-14.403,14.403-14.403l0,0c7.955,0,14.403,6.449,14.403,14.403V100.519z"/>
		
			<line style="fill:none;stroke:#263238;stroke-width:2;stroke-linejoin:round;stroke-miterlimit:10;" x1="445.751" y1="51.791" x2="445.751" y2="23.701"/>
	</g>
	<g>
		<path style="fill:none;stroke:#263238;stroke-linejoin:round;stroke-miterlimit:10;" d="M260.546,57.591
			c0,3.203-2.597,5.8-5.8,5.8c-3.203,0-5.8-2.597-5.8-5.8c0-3.203,2.597-5.8,5.8-5.8C257.949,51.791,260.546,54.388,260.546,57.591z
			"/>
		<path style="fill:none;stroke:#263238;stroke-linejoin:round;stroke-miterlimit:10;" d="M269.149,100.519h-28.807V77.793
			c0-7.955,6.449-14.403,14.403-14.403l0,0c7.955,0,14.403,6.449,14.403,14.403V100.519z"/>
		
			<line style="fill:none;stroke:#263238;stroke-width:2;stroke-linejoin:round;stroke-miterlimit:10;" x1="254.745" y1="51.791" x2="254.745" y2="23.701"/>
	</g>
</g>
<g id="Clock">
	<g>
		<path style="fill:#263238;stroke:#263238;stroke-linecap:round;stroke-linejoin:round;stroke-miterlimit:10;" d="M352,45.915
			c-18.825,0-34.085,15.26-34.085,34.085c0,18.825,15.261,34.085,34.085,34.085c18.825,0,34.085-15.261,34.085-34.085
			C386.085,61.175,370.825,45.915,352,45.915z M352,111.039c-17.142,0-31.039-13.897-31.039-31.039S334.858,48.961,352,48.961
			S383.039,62.858,383.039,80S369.142,111.039,352,111.039z"/>
		
			<circle style="fill:none;stroke:#263238;stroke-linecap:round;stroke-linejoin:round;stroke-miterlimit:10;" cx="352" cy="80" r="3.752"/>
		<g>
			<path style="fill:#263238;" d="M349.637,82.892l-4.977,7.465l1.675,0.838l5.34-7.476
				C350.903,83.652,350.203,83.356,349.637,82.892z"/>
			<path style="fill:#263238;" d="M355.744,80.076c-0.02,0.986-0.418,1.878-1.058,2.536l15.662,13.608l1.675-1.117L355.744,80.076z"
				/>
		</g>
	</g>
</g>
<g id="Plant">
	<g>
		<polygon style="fill:#FFFFFF;stroke:#263238;stroke-linecap:round;stroke-linejoin:round;stroke-miterlimit:10;" points="
			435.574,280.305 459.715,280.305 462.733,246.828 432.556,246.828 		"/>
		<g>
			<polygon style="fill:#263238;stroke:#263238;stroke-linecap:round;stroke-linejoin:round;stroke-miterlimit:10;" points="
				435.574,280.305 459.715,280.305 462.733,246.828 432.556,246.828 			"/>
		</g>
		<path style="fill:#263238;" d="M463.074,219.421c-0.14-0.241-0.448-0.325-0.69-0.184l-10.24,5.928l5.307-10.508
			c0.126-0.249,0.026-0.553-0.223-0.679c-0.249-0.126-0.553-0.025-0.679,0.223l-4.754,9.413c0.264-8.515-0.746-18.523-1.281-23.822
			c-0.182-1.801-0.313-3.102-0.313-3.538c0-0.279-0.226-0.505-0.505-0.505s-0.505,0.226-0.505,0.505c0,0.487,0.127,1.741,0.319,3.64
			c0.573,5.665,1.693,16.762,1.205,25.519l-9.26-10.996c-0.181-0.213-0.499-0.241-0.712-0.061c-0.213,0.18-0.241,0.498-0.061,0.712
			l9.861,11.71c0.005,0.006,0.013,0.008,0.019,0.014c0.008,0.008,0.012,0.019,0.021,0.027c0.011,0.01,0.025,0.014,0.036,0.023
			c-0.203,2.559-0.564,4.866-1.142,6.705l-7.336-7.1c-0.2-0.193-0.521-0.189-0.714,0.012c-0.194,0.2-0.189,0.52,0.012,0.714
			l7.673,7.426c-0.534,1.467-0.934,2.878-1.225,4.21l-0.031,0.015l-9.014-4.808c-0.247-0.13-0.553-0.038-0.683,0.208
			c-0.131,0.246-0.038,0.552,0.208,0.684l9.244,4.93c0.02,0.011,0.042,0.016,0.063,0.024c-0.516,2.798-0.573,5.196-0.483,6.967
			c0.013,0.27,0.237,0.479,0.504,0.479c0.009,0,0.017,0,0.026,0c0.279-0.014,0.493-0.252,0.479-0.53
			c-0.092-1.825-0.021-4.343,0.577-7.284l7.926-3.963c0.25-0.125,0.351-0.428,0.226-0.678c-0.125-0.25-0.428-0.35-0.678-0.226
			l-7.191,3.596c0.283-1.144,0.646-2.343,1.111-3.582c0.784-2.091,1.239-4.886,1.472-8.018l11.25-6.513
			C463.132,219.971,463.214,219.662,463.074,219.421z"/>
		<path style="fill:#92E3A9;" d="M450.632,211.245c0,0,5.661-4.953,6.368-9.552c0.708-4.599-1.769-7.783-1.061-9.906
			c0.708-2.123,2.83-5.661,1.061-8.491c-1.769-2.83-10.613-9.552-10.613-9.552s-0.354,3.538-2.123,6.368
			c-1.769,2.83-0.708,6.368,0,8.844c0.708,2.476-3.892,5.307-1.415,8.844c2.477,3.538,2.477,3.892,2.477,6.722
			C445.325,207.353,446.74,210.537,450.632,211.245z"/>
		<path style="fill:#92E3A9;" d="M444.618,218.674c0,0,1.061-2.83-0.707-5.307c-1.769-2.477-3.538-1.061-4.245-3.892
			c-0.708-2.83-1.769-4.599-3.538-6.014c-1.769-1.415-1.769-1.061-3.184-2.123c-1.415-1.061-1.769-2.476-3.184-3.538
			c-1.415-1.061-4.599-1.415-4.599-1.415s1.061,2.83,1.061,4.599c0,1.769-1.415,4.599,0.707,6.722
			c2.123,2.123,3.892,1.415,5.307,3.892C433.651,214.075,435.773,218.321,444.618,218.674z"/>
		<path style="fill:#92E3A9;" d="M445.325,229.641c0,0,0.354-4.599-3.892-6.368c-4.245-1.769-4.953-6.722-9.552-7.783
			c-4.599-1.061-8.137,0-8.491,2.83c-0.354,2.83-0.354,6.368-0.354,6.368s2.123-3.538,4.245-3.184c2.123,0.354,3.538,0,6.014,3.892
			C435.773,229.288,441.787,231.764,445.325,229.641z"/>
		<path style="fill:#92E3A9;" d="M443.556,237.425c-1.061-0.354-3.184-7.076-9.552-7.783c-6.368-0.707-14.859,2.123-14.859,2.123
			s3.892,2.123,9.552,4.953S443.556,237.425,443.556,237.425z"/>
		<path style="fill:#92E3A9;" d="M451.34,237.071c0,0,2.83-6.722,7.429-8.137c4.599-1.415,6.014,0.707,8.491,2.476
			c2.477,1.769,4.246,2.83,4.246,2.83s-2.83-1.061-5.661,1.769c-2.83,2.83-6.722,3.538-10.26,3.184
			C452.047,238.84,451.34,237.071,451.34,237.071z"/>
		<path style="fill:#92E3A9;" d="M458.061,222.212c0,0,0-1.769,2.123-5.661c2.123-3.892,2.477-7.783,6.722-8.491
			c4.245-0.708,4.599-1.061,7.076-2.83c2.477-1.769,8.491,1.415,9.906,2.83c1.415,1.415,2.123,2.477,2.123,2.477
			s-4.599-0.354-6.368,1.769c-1.769,2.123-5.66,3.892-7.43,4.599c-1.769,0.708-3.538-0.707-5.307,2.123
			C465.137,221.858,463.722,222.92,458.061,222.212z"/>
		<path style="fill:#92E3A9;" d="M455.231,217.259c0,0-3.184-5.307-1.769-8.137c1.415-2.83,4.245-3.892,3.892-5.66
			c-0.354-1.769-1.769-3.892,0-6.368c1.769-2.476,3.184-1.415,5.307-2.83c2.123-1.415,5.307-4.245,5.307-4.245s0.708,7.429,0,10.967
			c-0.708,3.538-2.83,3.892-2.83,6.722c0,2.83-1.415,4.599-3.184,6.722C460.184,216.552,455.231,217.259,455.231,217.259z"/>
		<g>
			<line style="fill:none;stroke:#263238;stroke-miterlimit:10;" x1="429.539" y1="202.172" x2="427.849" y2="200.322"/>
			<line style="fill:none;stroke:#263238;stroke-miterlimit:10;" x1="444.618" y1="218.674" x2="431.965" y2="204.827"/>
			<path style="fill:none;stroke:#263238;stroke-linecap:round;stroke-linejoin:round;stroke-miterlimit:10;" d="M448.834,180.616
				c-0.179-0.785-0.375-1.49-0.591-2.095"/>
			<path style="fill:none;stroke:#263238;stroke-linecap:round;stroke-linejoin:round;stroke-miterlimit:10;" d="M450.632,211.245
				c0,0,0.285-16.68-1.163-27.048"/>
			<line style="fill:none;stroke:#263238;stroke-miterlimit:10;" x1="465.246" y1="196.781" x2="466.352" y2="194.52"/>
			<line style="fill:none;stroke:#263238;stroke-miterlimit:10;" x1="455.231" y1="217.259" x2="463.656" y2="200.031"/>
			<path style="fill:none;stroke:#263238;stroke-miterlimit:10;" d="M477.415,208.671c0.443-0.06,0.856-0.087,1.243-0.087
				c2.461,0,2.461,0,2.461,0"/>
			<path style="fill:none;stroke:#263238;stroke-miterlimit:10;" d="M458.061,222.212c0.554,0.086,3.719-4.134,9.169-8.353
				c2.6-2.013,4.76-3.306,6.575-4.107"/>
			<path style="fill:none;stroke:#263238;stroke-miterlimit:10;" d="M424.195,220.323c-0.742,1.162-0.742,2.151-0.742,2.151"/>
			<path style="fill:none;stroke:#263238;stroke-miterlimit:10;" d="M445.325,229.641c0,0-3.06-0.487-8.51-6.113
				c-5.066-5.229-9.221-5.902-11.193-4.7"/>
			<path style="fill:none;stroke:#263238;stroke-miterlimit:10;" d="M464.795,232.168c0.849,0.143,1.605,0.352,2.26,0.503"/>
			<path style="fill:none;stroke:#263238;stroke-miterlimit:10;" d="M451.34,237.071c0,0,1.123,0.523,5.518-2.818
				c1.855-1.41,3.554-2.006,5.069-2.183"/>
			<path style="fill:none;stroke:#263238;stroke-miterlimit:10;" d="M424.333,232.059c-1.521-0.005-2.462,0.085-2.462,0.085"/>
			<path style="fill:none;stroke:#263238;stroke-miterlimit:10;" d="M443.556,237.425c0,0-0.588-0.71-7.445-3.347
				c-3.268-1.257-6.655-1.755-9.306-1.932"/>
		</g>
	</g>
</g>
<g id="Kitchen">
	
		<line style="fill:none;stroke:#263238;stroke-linejoin:round;stroke-miterlimit:10;" x1="14.157" y1="463.397" x2="485.906" y2="463.397"/>
	<g>
		
			<rect x="224.236" y="281.148" style="fill:#263238;stroke:#263238;stroke-linecap:round;stroke-linejoin:round;stroke-miterlimit:10;" width="243.4" height="8.554"/>
		
			<rect x="223.748" y="283.481" style="fill:none;stroke:#263238;stroke-linecap:round;stroke-linejoin:round;stroke-miterlimit:10;" width="240.777" height="179.916"/>
		
			<rect x="228.638" y="297.531" style="fill:none;stroke:#263238;stroke-linecap:round;stroke-linejoin:round;stroke-miterlimit:10;" width="108.444" height="41.266"/>
		
			<rect x="348.598" y="297.531" style="fill:none;stroke:#263238;stroke-linecap:round;stroke-linejoin:round;stroke-miterlimit:10;" width="108.444" height="41.266"/>
		
			<rect x="228.638" y="348.394" style="fill:none;stroke:#263238;stroke-linecap:round;stroke-linejoin:round;stroke-miterlimit:10;" width="108.444" height="103.645"/>
		
			<rect x="348.598" y="348.394" style="fill:none;stroke:#263238;stroke-linecap:round;stroke-linejoin:round;stroke-miterlimit:10;" width="108.444" height="103.645"/>
		
			<rect x="267.985" y="312.886" style="fill:#263238;stroke:#263238;stroke-linecap:round;stroke-linejoin:round;stroke-miterlimit:10;" width="30.71" height="8.637"/>
		
			<rect x="386.985" y="312.886" style="fill:#263238;stroke:#263238;stroke-linecap:round;stroke-linejoin:round;stroke-miterlimit:10;" width="30.71" height="8.637"/>
	</g>
	<g>
		<g>
			
				<rect x="332.127" y="236.374" style="fill:none;stroke:#263238;stroke-linecap:round;stroke-linejoin:round;stroke-miterlimit:10;" width="75.113" height="44.532"/>
			
				<rect x="332.127" y="241.484" style="fill:none;stroke:#263238;stroke-linecap:round;stroke-linejoin:round;stroke-miterlimit:10;" width="75.113" height="34.312"/>
			
				<rect x="337.318" y="241.605" style="fill:none;stroke:#263238;stroke-linecap:round;stroke-linejoin:round;stroke-miterlimit:10;" width="64.732" height="34.07"/>
			
				<rect x="384.99" y="241.605" style="fill:none;stroke:#263238;stroke-linecap:round;stroke-linejoin:round;stroke-miterlimit:10;" width="17.059" height="34.07"/>
			<path style="fill:none;stroke:#263238;stroke-linecap:round;stroke-linejoin:round;stroke-miterlimit:10;" d="M390.443,258.451
				c0,0.893-0.724,1.616-1.616,1.616c-0.892,0-1.616-0.724-1.616-1.616c0-0.892,0.724-1.616,1.616-1.616
				C389.72,256.835,390.443,257.559,390.443,258.451z"/>
			
				<circle style="fill:none;stroke:#263238;stroke-linecap:round;stroke-linejoin:round;stroke-miterlimit:10;" cx="393.877" cy="258.451" r="1.616"/>
			
				<circle style="fill:none;stroke:#263238;stroke-linecap:round;stroke-linejoin:round;stroke-miterlimit:10;" cx="398.927" cy="258.451" r="1.616"/>
			<path style="fill:none;stroke:#263238;stroke-linecap:round;stroke-linejoin:round;stroke-miterlimit:10;" d="M390.443,263.299
				c0,0.893-0.724,1.616-1.616,1.616c-0.892,0-1.616-0.724-1.616-1.616c0-0.892,0.724-1.616,1.616-1.616
				C389.72,261.683,390.443,262.407,390.443,263.299z"/>
			
				<circle style="fill:none;stroke:#263238;stroke-linecap:round;stroke-linejoin:round;stroke-miterlimit:10;" cx="393.877" cy="263.299" r="1.616"/>
			
				<circle style="fill:none;stroke:#263238;stroke-linecap:round;stroke-linejoin:round;stroke-miterlimit:10;" cx="398.927" cy="263.299" r="1.616"/>
			<path style="fill:none;stroke:#263238;stroke-linecap:round;stroke-linejoin:round;stroke-miterlimit:10;" d="M390.443,268.147
				c0,0.893-0.724,1.616-1.616,1.616c-0.892,0-1.616-0.723-1.616-1.616c0-0.892,0.724-1.616,1.616-1.616
				C389.72,266.531,390.443,267.255,390.443,268.147z"/>
			<path style="fill:none;stroke:#263238;stroke-linecap:round;stroke-linejoin:round;stroke-miterlimit:10;" d="M395.493,268.147
				c0,0.893-0.724,1.616-1.616,1.616s-1.616-0.723-1.616-1.616c0-0.892,0.724-1.616,1.616-1.616S395.493,267.255,395.493,268.147z"
				/>
			<path style="fill:none;stroke:#263238;stroke-linecap:round;stroke-linejoin:round;stroke-miterlimit:10;" d="M400.543,268.147
				c0,0.893-0.723,1.616-1.616,1.616c-0.892,0-1.616-0.723-1.616-1.616c0-0.892,0.724-1.616,1.616-1.616
				C399.82,266.531,400.543,267.255,400.543,268.147z"/>
			
				<rect x="381.422" y="243.811" style="fill:none;stroke:#263238;stroke-linecap:round;stroke-linejoin:round;stroke-miterlimit:10;" width="3.234" height="29.102"/>
		</g>
		
			<rect x="234.472" y="223.074" style="fill:none;stroke:#263238;stroke-linecap:round;stroke-linejoin:round;stroke-miterlimit:10;" width="67.47" height="57.831"/>
		
			<rect x="236.246" y="251.675" style="fill:none;stroke:#263238;stroke-linecap:round;stroke-linejoin:round;stroke-miterlimit:10;" width="14.145" height="29.076"/>
		
			<rect x="263.751" y="260.56" style="fill:none;stroke:#263238;stroke-linecap:round;stroke-linejoin:round;stroke-miterlimit:10;" width="9.823" height="20.192"/>
		
			<rect x="252.356" y="239.495" style="fill:none;stroke:#263238;stroke-linecap:round;stroke-linejoin:round;stroke-miterlimit:10;" width="9.823" height="41.257"/>
		
			<rect x="236.246" y="251.675" style="fill:none;stroke:#263238;stroke-linecap:round;stroke-linejoin:round;stroke-miterlimit:10;" width="14.145" height="9.037"/>
	</g>
	<g>
		
			<rect x="34.783" y="80.484" style="fill:none;stroke:#263238;stroke-linecap:round;stroke-linejoin:round;stroke-miterlimit:10;" width="189.057" height="382.912"/>
		
			<rect x="34.783" y="347.435" style="fill:none;stroke:#263238;stroke-linecap:round;stroke-linejoin:round;stroke-miterlimit:10;" width="189.057" height="4.798"/>
		
			<rect x="125.953" y="80.484" style="fill:none;stroke:#263238;stroke-linecap:round;stroke-linejoin:round;stroke-miterlimit:10;" width="6.718" height="266.95"/>
		<g>
			
				<rect x="110.507" y="131.547" style="fill:none;stroke:#263238;stroke-linecap:round;stroke-linejoin:round;stroke-miterlimit:10;" width="7.224" height="152.301"/>
			<path style="fill:#263238;stroke:#263238;stroke-linecap:round;stroke-linejoin:round;stroke-miterlimit:10;" d="
				M110.507,131.547c0,0-7.826,76.452,0,152.301V131.547z"/>
		</g>
		<g>
			
				<rect x="126.403" y="281.139" transform="matrix(6.123234e-17 -1 1 6.123234e-17 -227.2754 487.3048)" style="fill:none;stroke:#263238;stroke-linecap:round;stroke-linejoin:round;stroke-miterlimit:10;" width="7.224" height="152.301"/>
			<path style="fill:#263238;stroke:#263238;stroke-linecap:round;stroke-linejoin:round;stroke-miterlimit:10;" d="M53.864,360.902
				c0,0,76.452,7.826,152.301,0H53.864z"/>
		</g>
		<g>
			
				<rect x="141.208" y="131.547" style="fill:none;stroke:#263238;stroke-linecap:round;stroke-linejoin:round;stroke-miterlimit:10;" width="7.224" height="152.301"/>
			<path style="fill:#263238;stroke:#263238;stroke-linecap:round;stroke-linejoin:round;stroke-miterlimit:10;" d="
				M140.606,131.547c0,0-7.826,76.452,0,152.301V131.547z"/>
		</g>
	</g>
</g>
<g id="List">
	<g>
		<path style="fill:#92E3A9;stroke:#263238;stroke-width:3;stroke-linecap:round;stroke-linejoin:round;stroke-miterlimit:10;" d="
			M144.248,181.945H31.295c-3.866,0-7-3.134-7-7V49.051c0-3.866,3.134-7,7-7h112.952c3.866,0,7,3.134,7,7v125.894
			C151.248,178.811,148.114,181.945,144.248,181.945z"/>
		<g>
			<path style="fill:#FFFFFF;stroke:#263238;stroke-linecap:round;stroke-linejoin:round;stroke-miterlimit:10;" d="M40.835,53.156
				v6.937c0.46-1.036,1.495-1.761,2.701-1.761c1.634,0,2.959,1.325,2.959,2.959c0,1.634-1.325,2.959-2.959,2.959
				c-1.207,0-2.241-0.725-2.701-1.762v5.324c0.46-1.036,1.495-1.762,2.701-1.762c1.634,0,2.959,1.325,2.959,2.959
				s-1.325,2.959-2.959,2.959c-1.207,0-2.241-0.725-2.701-1.761v5.324c0.46-1.036,1.495-1.761,2.701-1.761
				c1.634,0,2.959,1.325,2.959,2.959c0,1.634-1.325,2.959-2.959,2.959c-1.207,0-2.241-0.725-2.701-1.761v5.324
				c0.46-1.036,1.495-1.761,2.701-1.761c1.634,0,2.959,1.325,2.959,2.959s-1.325,2.959-2.959,2.959
				c-1.207,0-2.241-0.725-2.701-1.761v5.324c0.46-1.036,1.495-1.761,2.701-1.761c1.634,0,2.959,1.325,2.959,2.959
				s-1.325,2.959-2.959,2.959c-1.207,0-2.241-0.725-2.701-1.761v5.324c0.46-1.036,1.495-1.761,2.701-1.761
				c1.634,0,2.959,1.325,2.959,2.959c0,1.634-1.325,2.959-2.959,2.959c-1.207,0-2.241-0.725-2.701-1.761v5.324
				c0.46-1.036,1.495-1.761,2.701-1.761c1.634,0,2.959,1.325,2.959,2.959s-1.325,2.959-2.959,2.959
				c-1.207,0-2.241-0.725-2.701-1.761v5.324c0.46-1.036,1.495-1.761,2.701-1.761c1.634,0,2.959,1.325,2.959,2.959
				c0,1.634-1.325,2.959-2.959,2.959c-1.207,0-2.241-0.725-2.701-1.761v5.324c0.46-1.036,1.495-1.761,2.701-1.761
				c1.634,0,2.959,1.325,2.959,2.959c0,1.634-1.325,2.959-2.959,2.959c-1.207,0-2.241-0.725-2.701-1.762v5.324
				c0.46-1.036,1.495-1.761,2.701-1.761c1.634,0,2.959,1.325,2.959,2.959c0,1.634-1.325,2.959-2.959,2.959
				c-1.207,0-2.241-0.725-2.701-1.761v5.324c0.46-1.036,1.495-1.761,2.701-1.761c1.634,0,2.959,1.325,2.959,2.959
				c0,1.634-1.325,2.959-2.959,2.959c-1.207,0-2.241-0.725-2.701-1.761v5.324c0.46-1.036,1.495-1.761,2.701-1.761
				c1.634,0,2.959,1.325,2.959,2.959c0,1.634-1.325,2.959-2.959,2.959c-1.207,0-2.241-0.725-2.701-1.761v5.324
				c0.46-1.036,1.495-1.761,2.701-1.761c1.634,0,2.959,1.325,2.959,2.959c0,1.634-1.325,2.959-2.959,2.959
				c-1.207,0-2.241-0.725-2.701-1.761v5.324c0.46-1.036,1.495-1.761,2.701-1.761c1.634,0,2.959,1.325,2.959,2.959
				c0,1.634-1.325,2.959-2.959,2.959c-1.207,0-2.241-0.725-2.701-1.762v5.731h88.445V53.156H40.835z"/>
			<g>
				<path style="fill:#263238;" d="M70.135,68.837l-0.067,4.439l0.303,7.921l0.286,6.189c0,1.121-0.331,1.682-0.992,1.682
					c-0.381,0-0.661-0.179-0.841-0.538c-0.179-0.359-0.269-0.757-0.269-1.194l0.269-5.499c0-1.188-0.079-2.977-0.235-5.365
					c-0.157-2.387-0.235-4.175-0.235-5.364l0.05-3.01c0-1.648-0.106-2.718-0.319-3.212l-1.867,0.185
					c-0.292,0-0.553-0.087-0.782-0.261c-0.23-0.173-0.345-0.398-0.345-0.672c0-0.275,0.274-0.507,0.824-0.698
					c0.56-0.202,1.233-0.347,2.018-0.437c1.379-0.157,2.539-0.236,3.481-0.236c0.28,0,0.535,0.093,0.765,0.278
					c0.23,0.185,0.345,0.418,0.345,0.698c0,0.28-0.101,0.502-0.303,0.664c-0.202,0.162-0.448,0.244-0.74,0.244l-1.228-0.067
					c-0.157,0-0.275,0.006-0.353,0.017C70.057,65.922,70.135,67.335,70.135,68.837z"/>
				<path style="fill:#263238;" d="M82.798,78.439l-0.303,4.355v0.151c-0.146,0.639-0.218,1.329-0.218,2.068
					c0,0.74-0.129,1.455-0.386,2.144c-0.258,0.689-0.651,1.301-1.177,1.833c-0.527,0.533-1.104,0.799-1.732,0.799
					c-0.628,0-1.2-0.213-1.716-0.639c-0.516-0.426-0.941-0.973-1.278-1.639c-0.336-0.667-0.634-1.463-0.891-2.388
					c-0.258-0.925-0.457-1.827-0.597-2.708c-0.14-0.88-0.255-1.808-0.345-2.783c-0.134-1.491-0.199-2.649-0.193-3.473
					c0.005-0.824,0.002-1.53-0.008-2.118c-0.011-0.589-0.023-1.118-0.034-1.59c0-0.235,0-0.496,0-0.782c0-0.286,0-0.591,0-0.917
					c0.011-0.661,0.031-1.255,0.059-1.783c0.028-0.527,0.078-1.095,0.151-1.707c0.073-0.611,0.165-1.149,0.277-1.614
					c0.112-0.465,0.264-0.922,0.454-1.371c0.202-0.459,0.425-0.835,0.672-1.127c0.561-0.65,1.205-0.976,1.934-0.976
					c0.728,0,1.351,0.132,1.866,0.395c0.516,0.264,0.95,0.687,1.303,1.27c0.353,0.583,0.661,1.149,0.925,1.698
					c0.263,0.549,0.471,1.314,0.622,2.295c0.151,0.981,0.271,1.774,0.361,2.38c0.09,0.617,0.152,1.497,0.185,2.64
					c0.045,1.536,0.067,2.735,0.067,3.598V78.439z M79.746,65.835c-0.23-0.589-0.516-1.043-0.858-1.362
					c-0.342-0.32-0.681-0.48-1.018-0.48c-0.336,0-0.614,0.118-0.832,0.353c-0.218,0.235-0.403,0.569-0.555,1.001
					c-0.151,0.431-0.286,0.894-0.404,1.387c-0.117,0.493-0.207,1.062-0.269,1.707c-0.061,0.645-0.115,1.231-0.159,1.757
					c-0.034,0.516-0.062,1.088-0.084,1.715c-0.022,1.042-0.039,1.855-0.05,2.439v0.151c0,1.536,0.118,3.193,0.353,4.969
					c0.235,1.777,0.48,3.232,0.732,4.364c0.252,1.133,0.591,2.094,1.017,2.884c0.426,0.791,0.902,1.186,1.429,1.186
					c0.46,0,0.847-0.432,1.16-1.295c0.314-0.874,0.538-1.951,0.673-3.229c0.224-2.287,0.339-3.893,0.345-4.818
					c0.005-0.925,0.005-1.6,0-2.026c-0.006-0.426-0.023-1.045-0.051-1.858c-0.028-0.813-0.076-1.575-0.143-2.287
					c-0.067-0.711-0.154-1.499-0.261-2.363c-0.106-0.863-0.247-1.631-0.42-2.304C80.178,67.054,79.976,66.424,79.746,65.835z"/>
				<path style="fill:#263238;" d="M97.748,76.152l0.084,0.723c0.011,1.626-0.421,3.543-1.295,5.751
					c-0.986,2.523-2.152,4.311-3.498,5.365c-0.762,0.605-1.547,0.913-2.354,0.925c-0.426,0-0.813-0.098-1.16-0.294
					c-0.347-0.196-0.521-0.491-0.521-0.883c0.504-0.527,0.757-1.878,0.757-4.053c0-1.278-0.106-3.178-0.319-5.701
					c-0.214-2.522-0.32-4.411-0.32-5.667l0.101-3.767c0-0.605-0.126-1.422-0.378-2.447c-0.253-1.026-0.379-1.751-0.379-2.178
					c0-0.796,0.88-1.193,2.64-1.193h0.521c2.343,0,4.041,1.311,5.096,3.935c0.74,1.828,1.11,4.35,1.11,7.567v1.598
					C97.776,75.933,97.748,76.04,97.748,76.152z M91.408,83.618v3.296c0.863-0.561,1.614-1.343,2.253-2.346
					c0.639-1.003,1.127-2.099,1.463-3.288c0.628-2.275,0.942-4.546,0.942-6.811c0-2.601-0.326-4.652-0.976-6.155
					c-0.661-1.547-1.48-2.567-2.455-3.06c-0.605-0.314-1.29-0.465-2.052-0.454v0.034c0,2.075,0.137,5.196,0.412,9.367
					C91.271,78.372,91.408,81.511,91.408,83.618z"/>
				<path style="fill:#263238;" d="M108.628,78.439l-0.303,4.355v0.151c-0.146,0.639-0.218,1.329-0.218,2.068
					c0,0.74-0.129,1.455-0.386,2.144c-0.258,0.689-0.651,1.301-1.177,1.833c-0.527,0.533-1.104,0.799-1.732,0.799
					c-0.628,0-1.2-0.213-1.716-0.639c-0.516-0.426-0.941-0.973-1.278-1.639c-0.336-0.667-0.634-1.463-0.891-2.388
					c-0.258-0.925-0.457-1.827-0.597-2.708c-0.14-0.88-0.255-1.808-0.345-2.783c-0.134-1.491-0.199-2.649-0.193-3.473
					c0.005-0.824,0.002-1.53-0.008-2.118c-0.011-0.589-0.023-1.118-0.034-1.59c0-0.235,0-0.496,0-0.782c0-0.286,0-0.591,0-0.917
					c0.011-0.661,0.031-1.255,0.059-1.783c0.028-0.527,0.078-1.095,0.151-1.707c0.073-0.611,0.165-1.149,0.277-1.614
					c0.112-0.465,0.264-0.922,0.454-1.371c0.202-0.459,0.425-0.835,0.672-1.127c0.561-0.65,1.205-0.976,1.934-0.976
					c0.728,0,1.35,0.132,1.866,0.395c0.516,0.264,0.95,0.687,1.304,1.27c0.353,0.583,0.661,1.149,0.925,1.698
					c0.263,0.549,0.471,1.314,0.622,2.295c0.151,0.981,0.271,1.774,0.361,2.38c0.09,0.617,0.152,1.497,0.185,2.64
					c0.045,1.536,0.067,2.735,0.067,3.598V78.439z M105.576,65.835c-0.23-0.589-0.516-1.043-0.858-1.362
					c-0.342-0.32-0.681-0.48-1.018-0.48s-0.614,0.118-0.832,0.353c-0.218,0.235-0.403,0.569-0.555,1.001
					c-0.151,0.431-0.286,0.894-0.404,1.387c-0.117,0.493-0.207,1.062-0.269,1.707c-0.061,0.645-0.115,1.231-0.159,1.757
					c-0.034,0.516-0.062,1.088-0.084,1.715c-0.022,1.042-0.039,1.855-0.051,2.439v0.151c0,1.536,0.118,3.193,0.353,4.969
					c0.235,1.777,0.48,3.232,0.732,4.364c0.252,1.133,0.591,2.094,1.017,2.884c0.426,0.791,0.902,1.186,1.429,1.186
					c0.46,0,0.847-0.432,1.16-1.295c0.314-0.874,0.538-1.951,0.673-3.229c0.224-2.287,0.339-3.893,0.345-4.818
					c0.005-0.925,0.005-1.6,0-2.026c-0.006-0.426-0.023-1.045-0.051-1.858c-0.028-0.813-0.076-1.575-0.143-2.287
					c-0.067-0.711-0.154-1.499-0.261-2.363c-0.107-0.863-0.247-1.631-0.42-2.304C106.008,67.054,105.805,66.424,105.576,65.835z"/>
			</g>
			<g>
				<line style="fill:none;stroke:#263238;stroke-miterlimit:10;" x1="54.776" y1="105.433" x2="110.719" y2="105.433"/>
				<line style="fill:none;stroke:#263238;stroke-miterlimit:10;" x1="54.776" y1="117.285" x2="110.719" y2="117.285"/>
				<line style="fill:none;stroke:#263238;stroke-miterlimit:10;" x1="54.776" y1="129.137" x2="110.719" y2="129.137"/>
				<line style="fill:none;stroke:#263238;stroke-miterlimit:10;" x1="54.776" y1="140.99" x2="110.719" y2="140.99"/>
				<line style="fill:none;stroke:#263238;stroke-miterlimit:10;" x1="54.776" y1="152.842" x2="110.719" y2="152.842"/>
				<rect x="112.141" y="98.796" style="fill:none;stroke:#263238;stroke-miterlimit:10;" width="10.904" height="9.956"/>
				<rect x="112.141" y="111.122" style="fill:none;stroke:#263238;stroke-miterlimit:10;" width="10.904" height="9.956"/>
				<rect x="112.141" y="123.448" style="fill:none;stroke:#263238;stroke-miterlimit:10;" width="10.904" height="9.956"/>
				<rect x="112.141" y="135.775" style="fill:none;stroke:#263238;stroke-miterlimit:10;" width="10.904" height="9.956"/>
				<rect x="112.141" y="148.101" style="fill:none;stroke:#263238;stroke-miterlimit:10;" width="10.904" height="9.956"/>
				<line style="fill:none;stroke:#92E3A9;stroke-miterlimit:10;" x1="121.261" y1="96.824" x2="113.649" y2="110.83"/>
				<line style="fill:none;stroke:#92E3A9;stroke-miterlimit:10;" x1="112.141" y1="98.796" x2="123.046" y2="108.751"/>
				<line style="fill:none;stroke:#92E3A9;stroke-miterlimit:10;" x1="120.957" y1="136.103" x2="112.126" y2="143.715"/>
				<line style="fill:none;stroke:#92E3A9;stroke-miterlimit:10;" x1="113.953" y1="134.58" x2="121.566" y2="145.846"/>
			</g>
			<line style="fill:none;stroke:#92E3A9;stroke-miterlimit:10;" x1="53.114" y1="72.802" x2="62.275" y2="76.1"/>
			<line style="fill:none;stroke:#92E3A9;stroke-miterlimit:10;" x1="54.946" y1="65.84" x2="63.008" y2="70.97"/>
			<line style="fill:none;stroke:#92E3A9;stroke-miterlimit:10;" x1="121.267" y1="66.573" x2="112.107" y2="71.337"/>
			<line style="fill:none;stroke:#92E3A9;stroke-miterlimit:10;" x1="121.267" y1="73.169" x2="112.474" y2="78.665"/>
		</g>
	</g>
	
		<polyline style="fill:none;stroke:#263238;stroke-width:3;stroke-linecap:round;stroke-linejoin:round;stroke-miterlimit:10;" points="
		151.41,118.032 174.778,118.032 174.778,140.733 	"/>
</g>
<g id="Character">
	<ellipse style="opacity:0.2;" cx="289.417" cy="474.054" rx="67.989" ry="9.455"/>
	<g>
		<g>
			<path style="fill:#FFFFFF;stroke:#263238;stroke-linecap:round;stroke-linejoin:round;stroke-miterlimit:10;" d="
				M254.659,459.702c0,0-5.128,5.317-7.406,6.837c-2.279,1.519-8.166,3.039-8.926,4.748c-0.76,1.709,0.95,3.039,0.95,3.039
				s0.57,1.899,3.798,2.849c3.229,0.949,8.356,0,8.356,0s6.077,1.519,10.825,0.38s7.406-5.697,11.015-6.077
				c3.608-0.38,6.837-1.519,8.166-4.938c1.329-3.418-6.837-6.267-12.534-8.356C263.205,456.094,254.659,459.702,254.659,459.702z"/>
			<path style="fill:none;stroke:#263238;stroke-linecap:round;stroke-linejoin:round;stroke-miterlimit:10;" d="M249.721,470.147
				c0,0-3.418,1.139-5.697,1.519c-2.279,0.38-4.558,2.089-3.798,4.178"/>
			<path style="fill:none;stroke:#263238;stroke-linecap:round;stroke-linejoin:round;stroke-miterlimit:10;" d="M239.276,474.325
				c0,0,0-3.229,4.748-4.178"/>
			<path style="fill:none;stroke:#263238;stroke-linecap:round;stroke-linejoin:round;stroke-miterlimit:10;" d="M238.706,472.616
				c0,0-0.19-2.849,5.318-3.798"/>
		</g>
		<g>
			<path style="fill:#FFFFFF;stroke:#263238;stroke-linecap:round;stroke-linejoin:round;stroke-miterlimit:10;" d="M302.391,467.59
				c0,0,0.885,2.557-1.014,5.975c-1.899,3.418,0.19,6.267,1.709,7.217c1.519,0.949,4.178,1.139,5.318,0.38
				c1.139-0.76,1.519-0.57,1.519-0.57s3.988,0.57,6.837,0.38c2.849-0.19,6.077-0.19,6.647-3.039c0.57-2.849-1.519-4.748-1.519-5.887
				c0-1.14,0.19-5.318,0.19-5.318s-8.356-7.596-12.724-7.786C304.985,458.752,302.265,465.603,302.391,467.59z"/>
			<polyline style="fill:none;stroke:#263238;stroke-linecap:round;stroke-linejoin:round;stroke-miterlimit:10;" points="
				309.923,480.592 310.683,477.364 310.683,475.465 			"/>
			<path style="fill:none;stroke:#263238;stroke-linecap:round;stroke-linejoin:round;stroke-miterlimit:10;" d="M313.151,480.782
				c0,0,1.139-2.089,1.329-3.608c0.19-1.519,0.19-1.519,0.19-1.519"/>
			<path style="fill:none;stroke:#263238;stroke-linecap:round;stroke-linejoin:round;stroke-miterlimit:10;" d="M317.709,480.592
				c0,0,0.57-1.709,0.57-3.798c0-2.089,0-1.329,0-1.329"/>
			<path style="fill:none;stroke:#263238;stroke-linecap:round;stroke-linejoin:round;stroke-miterlimit:10;" d="M320.748,480.402
				c0,0,0.76-1.709,0.76-3.228c0-1.519-0.57-0.76-0.57-0.76"/>
		</g>
		<g>
			<path style="fill:#FFFFFF;" d="M252.816,301.956c0,0-1.537,28.823,0.384,41.889c1.922,13.066-0.769,41.12-0.769,55.724
				c0,14.603,2.69,45.348,3.075,48.806c0.384,3.459-2.306,12.682-2.306,12.682s7.686,3.459,16.525,6.149
				c8.839,2.69,13.835,1.537,15.372-1.537c1.537-3.074-2.306-43.81-2.306-52.649c0-8.839,5.765-52.649,5.765-56.108
				c0-3.459,0-7.686,0-7.686s6.533,53.802,8.07,66.868c1.537,13.066,1.537,28.054,1.922,32.666
				c0.384,4.612,3.843,18.831,3.843,18.831s1.153-1.922,6.533-2.306c5.38-0.384,13.451,3.843,13.451,3.843s4.612-4.227,6.149-10.76
				c1.537-6.533,1.537-14.603,1.537-20.752c0-6.149,1.537-47.654,1.537-62.257c0-14.604-0.769-70.327-0.769-70.327
				s-43.042,3.074-55.34,1.537C263.192,305.03,252.816,301.956,252.816,301.956z"/>
			<g>
				<path style="opacity:0.3;" d="M277.93,406.936c1.88-0.091,3.634-0.172,5.223-0.143c0.099-1.182,0.216-2.464,0.347-3.832
					c-1.785-0.046-3.702,0.042-5.756,0.141c-4.097,0.197-8.742,0.422-13.232-0.554c-4.62-1.004-8.957-2.751-12.075-4.203
					c-0.004,0.416-0.007,0.827-0.007,1.224c0,0.939,0.012,1.948,0.033,3.009c3.109,1.356,7.036,2.808,11.234,3.721
					C268.682,407.383,273.596,407.146,277.93,406.936z"/>
				<path style="opacity:0.3;" d="M277.93,388.328c2.672-0.129,5.091-0.238,7.132-0.034c0.144-1.269,0.289-2.544,0.435-3.818
					c-2.326-0.238-4.91-0.12-7.753,0.018c-4.097,0.197-8.742,0.422-13.232-0.554c-4.287-0.932-8.331-2.504-11.384-3.886
					c-0.067,1.39-0.133,2.764-0.197,4.116c3.032,1.297,6.773,2.653,10.765,3.521C268.682,388.775,273.596,388.538,277.93,388.328z"
					/>
				<path style="opacity:0.3;" d="M277.931,400.867c2.107-0.101,4.055-0.19,5.788-0.126c0.124-1.23,0.256-2.509,0.396-3.826
					c-1.957-0.089-4.079,0.009-6.368,0.118c-4.099,0.199-8.743,0.421-13.234-0.554c-4.547-0.988-8.823-2.697-11.929-4.135
					c-0.051,1.454-0.092,2.849-0.118,4.166c3.109,1.355,7.035,2.807,11.232,3.72C268.683,401.315,273.597,401.077,277.931,400.867z"
					/>
				<path style="opacity:0.3;" d="M277.931,419.475c1.837-0.088,3.552-0.167,5.112-0.144c-0.083-1.441-0.148-2.734-0.192-3.84
					c-1.6-0.013-3.298,0.064-5.105,0.15c-4.099,0.199-8.743,0.421-13.234-0.554c-4.455-0.969-8.657-2.63-11.746-4.049
					c0.067,1.406,0.144,2.847,0.226,4.305c3.021,1.289,6.739,2.633,10.705,3.495C268.683,419.923,273.597,419.685,277.931,419.475z"
					/>
				<path style="opacity:0.3;" d="M277.93,425.543c1.986-0.096,3.837-0.185,5.494-0.141c-0.089-1.343-0.173-2.628-0.248-3.839
					c-1.694-0.028-3.501,0.053-5.432,0.146c-4.097,0.197-8.742,0.422-13.232-0.554c-4.299-0.935-8.354-2.513-11.41-3.898
					c0.085,1.433,0.175,2.874,0.269,4.313c2.952,1.24,6.523,2.509,10.326,3.335C268.682,425.991,273.596,425.753,277.93,425.543z"/>
				<path style="opacity:0.3;" d="M277.93,444.151c2.507-0.121,4.797-0.229,6.757-0.074c-0.081-1.274-0.166-2.564-0.252-3.859
					c-2.045-0.117-4.272-0.018-6.69,0.099c-4.097,0.197-8.742,0.422-13.232-0.554c-3.69-0.802-7.198-2.079-10.053-3.301
					c0.124,1.541,0.243,2.983,0.354,4.303c2.645,1.042,5.681,2.053,8.883,2.749C268.682,444.598,273.596,444.361,277.93,444.151z"/>
				<path style="opacity:0.3;" d="M277.931,438.083c2.34-0.112,4.485-0.211,6.354-0.098c-0.088-1.292-0.176-2.583-0.264-3.86
					c-1.931-0.081-4.022,0.016-6.274,0.124c-4.099,0.199-8.743,0.421-13.234-0.554c-3.899-0.848-7.603-2.225-10.539-3.508
					c0.111,1.485,0.221,2.924,0.33,4.307c2.759,1.112,5.984,2.21,9.393,2.951C268.683,438.531,273.597,438.293,277.931,438.083z"/>
				<path style="opacity:0.3;" d="M277.745,458.925c-4.097,0.197-8.742,0.422-13.232-0.554c-3.595-0.781-7.014-2.013-9.828-3.206
					c-0.304,1.405-0.636,2.743-0.91,3.791c2.871,1.185,6.295,2.377,9.923,3.165c4.985,1.084,9.899,0.847,14.233,0.637
					c2.839-0.137,5.395-0.254,7.512,0.006c0.028-1.065,0.021-2.371-0.014-3.867C283.12,458.671,280.559,458.789,277.745,458.925z"/>
				<path style="opacity:0.3;" d="M263.697,308.809c4.986,1.085,9.9,0.847,14.234,0.637c3.958-0.19,7.379-0.356,9.799,0.509
					c3.742,1.336,11.91,3.226,21.648,3.226c6.735,0,14.222-0.908,21.513-3.524c-0.026-1.952-0.046-3.363-0.055-4.082
					c-15.474,6.004-32.557,3.427-39.864,1.376c-6.454,0.112-12.12,0.037-15.483-0.383c-1.993-0.249-3.935-0.539-5.791-0.849
					c-1.725-0.091-3.466-0.287-5.186-0.66c-1.719-0.374-3.397-0.851-4.991-1.378c-4.12-0.959-6.706-1.725-6.706-1.725
					s-0.064,1.208-0.149,3.22C255.743,306.506,259.59,307.916,263.697,308.809z"/>
				<path style="opacity:0.3;" d="M329.99,444.672c0.038-1.406,0.056-2.779,0.063-4.101c-11.3,4.161-23.35,3.861-31.764,2.604
					c0.052,1.522,0.101,2.852,0.155,3.93c3.257,0.463,6.961,0.78,10.935,0.78C315.837,447.885,322.986,447.047,329.99,444.672z"/>
				<path style="opacity:0.3;" d="M328.104,459.852c-9.5,3.058-19.347,3.144-26.987,2.298c0.366,1.608,0.694,3.01,0.926,3.989
					c0.701,0.067,1.412,0.127,2.142,0.176c0.996-0.444,2.497-0.871,4.739-1.031c1.935-0.138,4.217,0.324,6.348,0.967
					c3.497-0.285,7.11-0.842,10.728-1.776C326.784,463.163,327.542,461.608,328.104,459.852z"/>
				<path style="opacity:0.3;" d="M277.931,382.259c2.975-0.143,5.646-0.272,7.817,0.04c0.148-1.281,0.296-2.553,0.442-3.807
					c-2.502-0.345-5.318-0.217-8.443-0.068c-4.099,0.199-8.743,0.421-13.234-0.554c-4.159-0.904-8.087-2.41-11.106-3.762
					c-0.062,1.376-0.126,2.749-0.191,4.112c2.981,1.26,6.611,2.559,10.481,3.4C268.683,382.707,273.597,382.469,277.931,382.259z"/>
				<path style="opacity:0.3;" d="M277.93,369.72c3.668-0.177,6.865-0.321,9.243,0.346c0.158-1.356,0.307-2.647,0.445-3.854
					c-2.84-0.659-6.135-0.507-9.874-0.326c-4.097,0.197-8.742,0.422-13.232-0.554c-3.962-0.861-7.718-2.27-10.676-3.569
					c-0.027,1.358-0.065,2.74-0.109,4.135c2.881,1.191,6.321,2.392,9.969,3.185C268.682,370.167,273.596,369.93,277.93,369.72z"/>
				<path style="opacity:0.3;" d="M299.762,455.922c0.273,1.33,0.567,2.695,0.856,4.003c2.699,0.306,5.648,0.501,8.761,0.501
					c6.052,0,12.712-0.737,19.291-2.784c0.297-1.382,0.542-2.813,0.724-4.285C318.932,457.04,307.903,456.973,299.762,455.922z"/>
				<path style="opacity:0.3;" d="M263.697,363.014c4.986,1.085,9.9,0.847,14.234,0.637c3.958-0.19,7.379-0.356,9.799,0.509
					c0.036,0.013,0.079,0.027,0.117,0.04c0.167-1.481,0.31-2.786,0.423-3.881c-2.984-0.853-6.498-0.695-10.523-0.502
					c-4.099,0.199-8.743,0.421-13.234-0.554c-3.939-0.856-7.676-2.253-10.625-3.547c0.007,1.353,0,2.746-0.019,4.172
					C256.72,361.06,260.11,362.235,263.697,363.014z"/>
				<path style="opacity:0.3;" d="M289.022,341.937c-3.138-1.12-6.91-0.936-11.275-0.727c-4.099,0.199-8.743,0.421-13.234-0.554
					c-4.579-0.995-8.881-2.72-11.992-4.164c0.085,1.535,0.192,2.996,0.324,4.357c3.047,1.308,6.822,2.681,10.853,3.557
					c4.986,1.085,9.9,0.847,14.234,0.637c3.958-0.19,7.379-0.356,9.799,0.509c3.742,1.336,11.91,3.226,21.648,3.226
					c6.872,0,14.527-0.945,21.957-3.686c-0.016-1.363-0.031-2.731-0.048-4.098C314.096,347.866,294.762,343.99,289.022,341.937z"/>
				<path style="opacity:0.3;" d="M289.022,329.397c-3.138-1.12-6.907-0.939-11.277-0.727c-4.097,0.197-8.742,0.422-13.232-0.554
					c-4.722-1.026-9.148-2.828-12.278-4.299c-0.002,1.409,0.004,2.826,0.021,4.236c3.141,1.382,7.146,2.88,11.441,3.813
					c4.985,1.084,9.899,0.847,14.233,0.637c3.957-0.191,7.379-0.356,9.8,0.509c3.743,1.337,11.911,3.225,21.648,3.225
					c6.827,0,14.426-0.93,21.809-3.629c-0.017-1.386-0.034-2.752-0.051-4.092C313.985,335.305,294.745,331.441,289.022,329.397z"/>
				<path style="opacity:0.3;" d="M289.967,360.858c0.158,1.307,0.327,2.695,0.503,4.146c4.317,1.17,11.106,2.383,18.909,2.383
					c6.931,0,14.659-0.964,22.15-3.76c-0.012-1.317-0.024-2.689-0.038-4.109C315.085,366.163,296.68,362.96,289.967,360.858z"/>
				<path style="opacity:0.3;" d="M289.022,348.005c-3.138-1.12-6.907-0.939-11.277-0.727c-4.097,0.197-8.742,0.422-13.232-0.554
					c-4.318-0.939-8.391-2.527-11.452-3.917c0.045,0.353,0.09,0.704,0.139,1.037c0.152,1.034,0.272,2.171,0.37,3.379
					c2.913,1.213,6.41,2.444,10.127,3.252c4.985,1.084,9.899,0.847,14.233,0.637c3.957-0.191,7.379-0.356,9.8,0.509
					c0.254,0.091,0.532,0.184,0.825,0.279c0-1.555,0-2.675,0-2.675s0.123,1.011,0.337,2.78c4.118,1.286,11.649,2.841,20.486,2.841
					c6.894,0,14.574-0.952,22.025-3.712c-0.015-1.352-0.03-2.722-0.046-4.101C314.151,353.942,294.77,350.058,289.022,348.005z"/>
				<path style="opacity:0.3;" d="M289.022,323.329c-3.138-1.12-6.91-0.936-11.275-0.727c-4.099,0.199-8.743,0.421-13.234-0.554
					c-4.694-1.02-9.094-2.807-12.221-4.272c-0.023,1.368-0.04,2.776-0.049,4.204c3.144,1.383,7.154,2.884,11.455,3.819
					c4.986,1.085,9.9,0.847,14.234,0.637c3.958-0.19,7.379-0.356,9.799,0.509c3.742,1.337,11.91,3.226,21.648,3.226
					c6.803,0,14.374-0.923,21.733-3.6c-0.018-1.403-0.035-2.769-0.052-4.089C313.925,329.228,294.736,325.373,289.022,323.329z"/>
				<path style="opacity:0.3;" d="M277.931,456.691c2.804-0.135,5.329-0.25,7.43-0.002c-0.044-1.215-0.101-2.516-0.169-3.884
					c-2.246-0.197-4.73-0.078-7.445,0.052c-4.099,0.199-8.743,0.421-13.234-0.554c-3.239-0.704-6.34-1.775-8.981-2.852
					c-0.031,1.114-0.224,2.504-0.492,3.943c2.591,1.01,5.547,1.983,8.657,2.659C268.683,457.139,273.597,456.901,277.931,456.691z"
					/>
				<path style="opacity:0.3;" d="M289.022,312.408c-3.138-1.12-6.907-0.939-11.277-0.727c-4.097,0.197-8.742,0.422-13.232-0.554
					c-4.542-0.987-8.814-2.693-11.92-4.131c-0.047,1.221-0.096,2.621-0.143,4.154c3.111,1.358,7.043,2.813,11.248,3.727
					c4.985,1.084,9.899,0.847,14.233,0.637c3.957-0.191,7.379-0.356,9.8,0.509c3.743,1.337,11.911,3.225,21.648,3.225
					c6.76,0,14.278-0.913,21.593-3.551c-0.02-1.488-0.038-2.858-0.054-4.085C313.822,318.281,294.721,314.443,289.022,312.408z"/>
				<path style="opacity:0.3;" d="M330.11,434.482c-11.414,4.22-23.597,3.881-32.034,2.594c0.052,1.385,0.098,2.702,0.139,3.929
					c3.311,0.481,7.097,0.813,11.163,0.813c6.479,0,13.654-0.844,20.681-3.237c0-0.32,0.001-0.655,0.001-0.966
					C330.06,436.957,330.079,435.873,330.11,434.482z"/>
				<path style="opacity:0.3;" d="M296.866,418.273c0.137,1.317,0.26,2.646,0.37,3.975c3.534,0.561,7.669,0.961,12.143,0.961
					c6.622,0,13.971-0.881,21.146-3.397c0.04-1.343,0.082-2.725,0.125-4.139C318.525,420.32,305.445,419.732,296.866,418.273z"/>
				<path style="opacity:0.3;" d="M295.357,405.459c0.171,1.42,0.332,2.767,0.481,4.014c3.819,0.681,8.462,1.196,13.54,1.196
					c6.739,0,14.231-0.908,21.524-3.527c0.04-1.38,0.08-2.765,0.12-4.148C318.063,408.085,303.938,407.115,295.357,405.459z"/>
				<path style="opacity:0.3;" d="M297.406,424.432c0.098,1.328,0.184,2.65,0.261,3.954c3.437,0.525,7.421,0.892,11.712,0.892
					c6.567,0,13.847-0.867,20.963-3.334c0.038-1.311,0.079-2.692,0.123-4.133C318.648,426.283,305.944,425.815,297.406,424.432z"/>
				<path style="opacity:0.3;" d="M294.609,399.243c0.167,1.386,0.329,2.732,0.485,4.027c3.951,0.748,8.874,1.331,14.285,1.331
					c6.793,0,14.351-0.92,21.7-3.588c0.039-1.396,0.077-2.784,0.114-4.156C317.8,402.177,303.135,400.994,294.609,399.243z"/>
				<path style="opacity:0.3;" d="M290.73,367.154c0.161,1.333,0.328,2.709,0.499,4.118c4.334,1.104,10.792,2.182,18.15,2.182
					c6.947,0,14.692-0.968,22.196-3.777c-0.008-1.274-0.018-2.65-0.03-4.113C315.714,371.998,298.001,369.245,290.73,367.154z"/>
				<path style="opacity:0.3;" d="M292.299,380.113c0.164,1.352,0.328,2.712,0.492,4.072c4.255,0.961,10.065,1.809,16.587,1.809
					c6.931,0,14.658-0.964,22.148-3.759c0.025-1.492,0.044-2.879,0.056-4.148C316.783,384.118,300.335,382.112,292.299,380.113z"/>
				<path style="opacity:0.3;" d="M293.055,386.363c0.164,1.36,0.328,2.714,0.49,4.056c4.177,0.89,9.691,1.642,15.834,1.642
					c6.894,0,14.575-0.952,22.026-3.712c0.033-1.44,0.062-2.829,0.087-4.156C317.171,389.994,301.318,388.289,293.055,386.363z"/>
			</g>
			<g>
				<path style="opacity:0.15;" d="M309.773,465.268c-0.273-13.834-0.691-33.952-0.945-41.075c-0.29-8.109-3.595-40.215-5.57-59.396
					c-0.719-6.975-1.286-12.485-1.306-12.961c0-1.147-3.792-34.239-5.031-45.031c-0.971,0.03-1.936,0.057-2.889,0.081
					c2.076,18.06,4.992,43.731,5.041,44.95c0,0.382,0.267,3.021,1.321,13.256c1.842,17.891,5.27,51.192,5.557,59.205
					c0.254,7.142,0.675,27.405,0.948,41.235c0.6-0.106,1.266-0.193,2.026-0.247C309.199,465.265,309.485,465.264,309.773,465.268z"
					/>
				<path style="opacity:0.15;" d="M303.974,458.651c0.154-9.639-2.316-52.975-3.644-74.543
					c-1.398-22.725-6.779-66.138-8.173-77.181c-0.982,0.02-1.95,0.037-2.895,0.048c1.324,10.48,6.788,54.442,8.195,77.308
					c1.845,29.981,3.771,66.025,3.638,74.32c-0.025,1.538,0.041,2.917,0.164,4.167c0.636,2.781,1.132,4.818,1.132,4.818
					s0.5-0.817,2.335-1.492C304.268,464.19,303.924,461.764,303.974,458.651z"/>
				<path style="opacity:0.15;" d="M331.076,382.579c0-12.796-2.682-63.273-3.443-77.332c-0.826,0.055-1.789,0.117-2.874,0.186
					c0.762,14.087,3.437,64.428,3.437,77.146c0,10.038,0.545,36.019,0.904,53.211c0.172,8.255,0.309,14.775,0.309,15.962
					c0,0.301,0.014,0.682,0.038,1.117c0.605-5.21,0.611-10.747,0.611-15.254c0-4.15,0.7-24.398,1.155-41.617
					C331.13,390.459,331.076,385.728,331.076,382.579z"/>
				<path style="opacity:0.15;" d="M320.154,468.078v-17.54c0-6.067-1.096-19.487-2.367-35.026
					c-1.016-12.424-2.167-26.507-2.894-38.683c-1.379-23.112-3.371-60.492-3.907-70.611c-0.945,0.048-1.905,0.095-2.876,0.141
					c0.535,10.088,2.528,47.504,3.909,70.643c0.729,12.208,1.881,26.307,2.898,38.745c1.265,15.476,2.358,28.841,2.358,34.791
					v16.382C318.358,467.315,319.343,467.721,320.154,468.078z"/>
				<path style="opacity:0.15;" d="M260.279,431.389c-1.612-16.921-1.612-44.608-1.612-69.036c0-20.548,0.285-49.852,0.377-58.784
					c-1.077-0.254-2.044-0.493-2.872-0.705c-0.083,8.01-0.384,38.363-0.384,59.489c0,24.493,0,52.252,1.625,69.31
					c0.951,9.991,1.341,22.916,1.5,31.761c0.893,0.35,1.861,0.72,2.898,1.103C261.665,455.63,261.281,441.909,260.279,431.389z"/>
				<path style="opacity:0.15;" d="M282.124,433.007c-1.612-16.922-1.612-44.608-1.612-69.036c0-19.376,0.253-46.517,0.359-57.045
					c-1.033-0.032-1.998-0.076-2.878-0.133c-0.105,10.456-0.36,37.725-0.36,57.178c0,24.492,0,52.251,1.625,69.31
					c1.084,11.385,1.438,26.578,1.554,35.202c1.173-0.229,2.125-0.628,2.862-1.168C283.542,458.49,283.17,444.002,282.124,433.007z"
					/>
				<path style="opacity:0.15;" d="M261.015,304.021c-0.097,9.449-0.372,38.114-0.372,58.332c0,24.493,0,52.252,1.624,69.31
					c1.02,10.704,1.394,24.77,1.532,33.583c0.932,0.331,1.898,0.664,2.894,0.994c-0.125-8.764-0.491-23.626-1.56-34.851
					c-1.611-16.921-1.611-44.608-1.611-69.036c0-19.792,0.264-47.706,0.366-57.717C262.878,304.429,261.918,304.222,261.015,304.021
					z"/>
				<path style="opacity:0.15;" d="M320.463,369.231c-0.59-5.401-1.098-10.065-1.117-10.518c0-1.053-1.704-40.119-2.259-52.82
					c-0.931,0.052-1.891,0.105-2.875,0.158c0.864,19.742,2.249,51.641,2.255,52.662c0,0.405,0.277,2.977,1.134,10.831
					c1.589,14.556,4.247,38.917,4.53,46.262c0.306,7.985,0.617,38.808,0.746,52.817c0.621-0.652,1.732-1.927,2.845-3.697
					c-0.144-15.149-0.43-41.855-0.714-49.231C324.721,408.249,322.056,383.824,320.463,369.231z"/>
				<path style="opacity:0.15;" d="M278.43,468.705c-0.119-8.698-0.478-23.877-1.565-35.294
					c-1.612-16.921-1.612-44.607-1.612-69.035c0-19.844,0.266-47.85,0.367-57.794c-0.043-0.005-0.088-0.01-0.13-0.015
					c-0.928-0.116-1.843-0.242-2.745-0.373c-0.098,9.602-0.37,38.07-0.37,58.182c0,24.492,0,52.251,1.625,69.309
					c1.069,11.226,1.428,26.151,1.549,34.834C276.595,468.656,277.551,468.713,278.43,468.705z"/>
			</g>
			<path style="fill:none;stroke:#263238;stroke-linecap:round;stroke-linejoin:round;stroke-miterlimit:10;" d="M252.816,301.956
				c0,0-1.537,28.823,0.384,41.889c1.922,13.066-0.769,41.12-0.769,55.724c0,14.603,2.69,45.348,3.075,48.806
				c0.384,3.459-2.306,12.682-2.306,12.682s7.686,3.459,16.525,6.149c8.839,2.69,13.835,1.537,15.372-1.537
				c1.537-3.074-2.306-43.81-2.306-52.649c0-8.839,5.765-52.649,5.765-56.108c0-3.459,0-7.686,0-7.686s6.533,53.802,8.07,66.868
				c1.537,13.066,1.537,28.054,1.922,32.666c0.384,4.612,3.843,18.831,3.843,18.831s1.153-1.922,6.533-2.306
				c5.38-0.384,13.451,3.843,13.451,3.843s4.612-4.227,6.149-10.76c1.537-6.533,1.537-14.603,1.537-20.752
				c0-6.149,1.537-47.654,1.537-62.257c0-14.604-0.769-70.327-0.769-70.327s-43.042,3.074-55.34,1.537
				C263.192,305.03,252.816,301.956,252.816,301.956z"/>
			<path style="fill:#263238;stroke:#263238;stroke-linecap:round;stroke-linejoin:round;stroke-miterlimit:10;" d="
				M288.556,349.225l-1.537-21.905c0,0-1.056,22.297-1.356,30.402c-0.3,8.105,0.6,17.712,0.6,17.712l2.293-18.522V349.225z"/>
			<path style="fill:none;stroke:#263238;stroke-linecap:round;stroke-linejoin:round;stroke-miterlimit:10;" d="M299.701,447.606
				c0,0,0.384-10.376,3.843-28.823c3.459-18.447,3.843-35.74,3.843-35.74"/>
			<path style="fill:none;stroke:#263238;stroke-linecap:round;stroke-linejoin:round;stroke-miterlimit:10;" d="M283.176,426.47
				c0,0-4.227-17.678-5.764-23.827c-1.537-6.149-3.459-17.678-3.459-17.678"/>
		</g>
		<g>
			<path style="fill:#FFFFFF;stroke:#263238;stroke-linecap:round;stroke-linejoin:round;stroke-miterlimit:10;" d="
				M208.383,196.958c0,0-1.446-4.75-3.717-8.674c-2.272-3.924-4.543-9.087-5.989-9.913c-1.446-0.826-10.119-4.956-11.359-5.576
				c-1.239-0.619-4.337,1.859-3.098,4.131c1.239,2.272,3.304,3.098,3.304,3.098s-1.239,5.163-1.446,8.88
				c-0.206,3.717-0.826,6.815,0.62,8.88c1.446,2.065,6.815,3.924,8.261,4.956c1.446,1.033,3.511,3.304,3.511,3.304L208.383,196.958z
				"/>
			<g>
				<g>
					<path style="fill:#FFFFFF;stroke:#263238;stroke-linecap:round;stroke-linejoin:round;stroke-miterlimit:10;" d="
						M188.27,157.777c-0.135-9.795-0.433-18.186-0.433-18.186s-7.354,1.029-12.473,1.142c-5.119,0.113-9.098-0.432-9.098-0.432
						s0.093,1.216,0.214,3.169c0.16-0.059,0.331-0.096,0.511-0.096c0.82,0,1.485,0.665,1.485,1.485s-0.665,1.485-1.485,1.485
						c-0.12,0-0.235-0.018-0.347-0.045c0.037,0.695,0.075,1.429,0.111,2.199c0.077-0.012,0.155-0.024,0.236-0.024
						c0.82,0,1.485,0.665,1.485,1.485s-0.665,1.485-1.485,1.485c-0.038,0-0.074-0.008-0.112-0.011
						c0.021,0.558,0.04,1.122,0.058,1.695c0.018-0.001,0.035-0.005,0.054-0.005c0.82,0,1.485,0.665,1.485,1.484
						c0,0.813-0.654,1.472-1.465,1.483c0.009,0.476,0.016,0.951,0.021,1.426c0.801,0.022,1.444,0.675,1.444,1.48
						c0,0.804-0.641,1.456-1.439,1.48c-0.004,0.526-0.01,1.048-0.021,1.558c0.372,0.006,0.742,0.147,1.026,0.43
						c0.58,0.58,0.58,1.52,0,2.1c-0.312,0.312-0.727,0.442-1.135,0.418c-0.031,0.557-0.068,1.091-0.111,1.604
						c0.443-0.06,0.906,0.056,1.247,0.396c0.58,0.58,0.58,1.52,0,2.1c-0.412,0.412-1.003,0.517-1.521,0.343
						c-0.047,0.633-0.071,1.227-0.083,1.802c0.434-0.05,0.883,0.069,1.216,0.402c0.58,0.58,0.58,1.52,0,2.1
						c-0.312,0.312-0.726,0.442-1.134,0.418c0.04,0.485,0.088,0.944,0.148,1.37c0.48-0.108,0.999-0.002,1.373,0.372
						c0.58,0.58,0.58,1.52,0,2.1c-0.214,0.214-0.482,0.322-0.758,0.378c0.443,1.44,0.891,2.127,0.891,2.127
						s8.748-0.773,15.009-3.377c6.261-2.604,10.689-5.333,10.689-5.333S188.404,167.572,188.27,157.777z"/>
					
						<line style="fill:none;stroke:#263238;stroke-linecap:round;stroke-linejoin:round;stroke-miterlimit:10;" x1="170.468" y1="149.343" x2="184.69" y2="147.689"/>
					
						<line style="fill:none;stroke:#263238;stroke-linecap:round;stroke-linejoin:round;stroke-miterlimit:10;" x1="170.952" y1="153.995" x2="185.174" y2="152.341"/>
					
						<line style="fill:none;stroke:#263238;stroke-linecap:round;stroke-linejoin:round;stroke-miterlimit:10;" x1="170.65" y1="159.521" x2="184.984" y2="156.9"/>
					
						<line style="fill:none;stroke:#263238;stroke-linecap:round;stroke-linejoin:round;stroke-miterlimit:10;" x1="171.657" y1="165.555" x2="185.393" y2="162.197"/>
					
						<line style="fill:none;stroke:#263238;stroke-linecap:round;stroke-linejoin:round;stroke-miterlimit:10;" x1="171.317" y1="171.405" x2="185.204" y2="166.757"/>
				</g>
				<path style="fill:#263238;stroke:#263238;stroke-linecap:round;stroke-linejoin:round;stroke-miterlimit:10;" d="
					M191.242,138.926c0,3.08-2.497,5.576-5.576,5.576c-3.08,0-5.576-2.497-5.576-5.576c0-3.08,2.496-5.576,5.576-5.576
					C188.745,133.35,191.242,135.846,191.242,138.926z"/>
			</g>
			<path style="fill:#FFFFFF;stroke:#263238;stroke-linecap:round;stroke-linejoin:round;stroke-miterlimit:10;" d="
				M205.905,191.795c0,0-2.478-6.402-3.924-9.706c-1.446-3.304-3.924-7.435-5.576-9.294c-1.652-1.859-4.956-4.337-5.783-5.783
				c-0.826-1.446-3.924,0.826-2.685,3.924c1.239,3.098,7.228,8.054,7.228,8.054s-1.446,5.369-0.413,9.087
				c1.033,3.717,4.13,5.989,5.163,6.402"/>
			<path style="fill:#FFFFFF;stroke:#263238;stroke-linecap:round;stroke-linejoin:round;stroke-miterlimit:10;" d="M183.088,181.87
				c0,0-3.494,3.381,0,4.574c3.494,1.193,8.153,0,8.153-1.79C191.242,182.864,184.952,181.074,183.088,181.87z"/>
			<path style="fill:#FFFFFF;stroke:#263238;stroke-linecap:round;stroke-linejoin:round;stroke-miterlimit:10;" d="
				M183.088,186.826c0,0-3.494,3.381,0,4.574c3.494,1.193,8.153,0,8.153-1.79C191.242,187.821,184.952,186.031,183.088,186.826z"/>
			<path style="fill:#FFFFFF;stroke:#263238;stroke-linecap:round;stroke-linejoin:round;stroke-miterlimit:10;" d="
				M184.187,191.584c0,0-3.643,3.525,0,4.769c3.643,1.244,8.5,0,8.5-1.866C192.687,192.621,186.13,190.755,184.187,191.584z"/>
		</g>
		<g>
			<path style="fill:#92E3A9;stroke:#263238;stroke-linecap:round;stroke-linejoin:round;stroke-miterlimit:10;" d="
				M249.261,183.649c0,0-3.839,5.758-4.479,11.196s0.64,9.917,0.32,10.876c-0.32,0.96-2.879,1.28-4.159,5.758
				c-1.28,4.479-5.758,8.637-5.758,8.637s-3.199-2.559-4.798-0.64c-1.6,1.919-1.6,1.919-1.6,1.919s-8.195-11.912-10.434-14.791
				c-2.239-2.879-5.561-3.443-5.561-3.443l-4.41-6.205l-10.625,8.764l2.239,3.839c0,0-3.519,5.758-1.599,11.196
				c1.919,5.438,12.156,14.075,16.954,19.833c4.798,5.758,11.516,14.395,17.914,14.075c6.398-0.32,16.593-10.612,19.792-15.091
				c3.199-4.479,4.2-4.423,5.8-8.581c1.6-4.159-1.28-36.148-3.199-40.306C253.739,186.528,249.261,183.649,249.261,183.649z"/>
			<path style="fill:#92E3A9;stroke:#263238;stroke-linecap:round;stroke-linejoin:round;stroke-miterlimit:10;" d="
				M228.787,221.397c0,0,4.142,4.643,4.142,15.402"/>
			<path style="fill:#92E3A9;stroke:#263238;stroke-linecap:round;stroke-linejoin:round;stroke-miterlimit:10;" d="
				M235.185,220.117c0,0,2.602,1.758,3.297,5.576"/>
		</g>
		<path style="fill:#92E3A9;stroke:#263238;stroke-linecap:round;stroke-linejoin:round;stroke-miterlimit:10;" d="M251.777,214.784
			c1.954,8.995,3.937,17.448,4.521,20.368c1.28,6.398-2.879,35.508-2.879,47.664c0,12.156-0.96,23.672-0.96,23.672
			s10.556,9.277,33.909,9.277s45.745-8.317,45.745-8.317l-0.64-47.024c0,0-0.32-28.151,0.32-35.188
			c0.64-7.038,8.637-46.704,7.038-51.183c-1.599-4.479-29.11-10.557-38.707-10.557s-15.675-0.96-18.874,0.32
			c0,0-12.796,6.078-20.153,9.917c-7.357,3.839-13.435,7.997-13.755,15.035c-0.076,1.676,0.319,4.821,0.983,8.726"/>
		<path style="fill:#92E3A9;stroke:#263238;stroke-linecap:round;stroke-linejoin:round;stroke-miterlimit:10;" d="M290.847,190.367
			c16.325-1.441,25.082-16.573,28.436-24.036c-7.37-1.677-14.971-2.835-19.16-2.835c-9.597,0-15.675-0.96-18.874,0.32
			c0,0-12.796,6.078-20.153,9.917c-0.051,0.027-0.1,0.054-0.151,0.08C264.358,179.412,273.921,191.861,290.847,190.367z"/>
		<path style="fill:#FFFFFF;stroke:#263238;stroke-linecap:round;stroke-linejoin:round;stroke-miterlimit:10;" d="M286.368,185.889
			c16.062,2.51,24.246-13.681,27.028-20.777c-5.3-0.992-10.203-1.616-13.272-1.616c-9.597,0-15.675-0.96-18.874,0.32
			c0,0-7.851,3.73-14.79,7.191C267.278,174.972,270.844,183.463,286.368,185.889z"/>
		<g>
			<g>
				<path style="fill:#FFFFFF;stroke:#263238;stroke-linecap:round;stroke-linejoin:round;stroke-miterlimit:10;" d="
					M278.538,173.972l-1.508-16.588c0,0-9.551,2.262-12.064,0.251c-2.513-2.011-2.262-14.829-2.262-14.829s-4.273-1.759-5.781-4.273
					c-1.508-2.513,5.027-6.786,5.278-8.043c0.251-1.257-0.251-2.011-1.508-3.77c-1.257-1.759,3.016-11.562,3.016-11.562
					s0.503-2.011,7.791-5.027c7.289-3.016,18.85,0.251,23.877,3.77c5.027,3.519,7.791,12.064,9.802,20.358
					c2.011,8.294-0.251,13.824-0.754,16.086c-0.503,2.262-1.005,3.519-1.005,4.524c0,1.005,2.513,7.791,3.77,9.802
					c1.257,2.011,2.262,3.77,2.262,3.77"/>
				<polygon style="fill:#263238;stroke:#263238;stroke-linecap:round;stroke-linejoin:round;stroke-miterlimit:10;" points="
					277.03,157.384 283.503,155.955 277.985,164.744 				"/>
				<ellipse style="fill:#263238;" cx="265.594" cy="129.737" rx="0.88" ry="2.513"/>
				<path style="fill:none;stroke:#263238;stroke-width:2;stroke-linecap:round;stroke-linejoin:round;stroke-miterlimit:10;" d="
					M262.955,123.705c0,0,3.267-2.513,6.283-0.503"/>
				<path style="fill:none;stroke:#263238;stroke-linecap:round;stroke-linejoin:round;stroke-miterlimit:10;" d="M294.624,144.566
					c0,0-3.77,0.754-3.519,1.508c0.251,0.754,0.503,3.016-1.257,5.781"/>
				<path style="fill:none;stroke:#263238;stroke-linecap:round;stroke-linejoin:round;stroke-miterlimit:10;" d="M265.469,145.068
					c0,0,6.032,2.011,7.792-3.519"/>
				<path style="fill:none;stroke:#263238;stroke-linecap:round;stroke-linejoin:round;stroke-miterlimit:10;" d="M269.49,129.988
					c0,3.748-1.688,6.786-3.77,6.786c-2.082,0-3.77-3.038-3.77-6.786c0-3.748,1.688-6.786,3.77-6.786
					C267.802,123.202,269.49,126.24,269.49,129.988z"/>
				
					<line style="fill:none;stroke:#263238;stroke-linecap:round;stroke-linejoin:round;stroke-miterlimit:10;" x1="269.49" y1="129.988" x2="291.105" y2="129.486"/>
			</g>
			<path style="fill:#263238;stroke:#263238;stroke-linecap:round;stroke-linejoin:round;stroke-miterlimit:10;" d="M289.848,96.309
				c0,0-4.021-4.775-13.321-4.524c-9.299,0.251-15.08,4.524-15.08,4.524h5.278c0,0-6.786-0.503-10.305,5.027
				c-3.519,5.529,0,6.032,1.759,5.529c1.759-0.503,4.021-0.754,4.021-0.754s-6.786,4.273-5.027,7.792s10.556,2.011,10.556,2.011
				s-4.775,1.508,0,3.267c4.775,1.759,15.331,0.754,15.331,0.754s-4.775,3.519-2.011,5.781c2.765,2.262,6.786,1.005,6.786,1.005
				s-4.524,3.016-2.765,6.283c1.759,3.267,5.027-1.759,6.283-3.016c1.257-1.257,2.513-1.005,2.513-1.005s3.016,7.289,3.267,8.043
				c0.251,0.754-4.273,7.037-2.765,9.299c1.508,2.262,7.791,1.759,7.791,1.759s-5.563,5.693-2.045,6.196
				c3.519,0.503,12.577-0.758,15.09-6.036c2.513-5.278-1.257-9.551-1.759-12.064c-0.503-2.513,1.759-2.011,4.021-7.792
				c2.262-5.781-0.854-20.585-0.854-20.585s2.765,1.508,3.016-1.005c0.251-2.513-7.04-5.835-7.04-5.835s-0.105-4.932-6.639-9.456
				c-6.535-4.524-18.359-0.954-17.102,1.811c1.257,2.765,2.756,3.243,2.756,3.243L289.848,96.309z"/>
			<path style="fill:none;stroke:#263238;stroke-linecap:round;stroke-linejoin:round;stroke-miterlimit:10;" d="M264.331,132.612
				c0,0,1.871,1.247,3.43,1.403"/>
		</g>
		<g>
			<path style="fill:#92E3A9;stroke:#263238;stroke-linecap:round;stroke-linejoin:round;stroke-miterlimit:10;" d="
				M330.514,200.284c-0.96,0.32-5.758,8.637-5.118,13.116s8.637,31.669,10.556,36.468c1.919,4.798,7.997,13.116,16.315,9.917
				c8.317-3.199,11.196-12.796,7.357-24.952c-3.839-12.156-10.876-39.027-13.755-49.583c-2.879-10.557-7.997-13.116-12.156-14.075"
				/>
			<path style="fill:#92E3A9;stroke:#263238;stroke-linecap:round;stroke-linejoin:round;stroke-miterlimit:10;" d="
				M357.283,235.995c0,0-9.249-4.624-12.331-4.432c-3.083,0.193-5.01,2.312-5.01,2.312l-4.624-1.541l-3.083,15.029l2.12,1.156
				c0,0-0.963,3.275,1.541,5.78c2.505,2.505,7.707,7.707,15.222,7.514c7.514-0.193,11.946-9.827,11.753-15.029
				c-0.193-5.202-3.083-9.441-3.083-9.441"/>
			<g>
				<path style="fill:#FFFFFF;stroke:#263238;stroke-linecap:round;stroke-linejoin:round;stroke-miterlimit:10;" d="
					M322.215,225.397c0,0,8.751-1.672,9.578-0.162s5.451,8.447,4.873,11.723c-0.578,3.275-1.541,9.441-3.083,9.827
					c-1.541,0.385-4.817-0.578-4.817-0.578l-7.129-0.385L322.215,225.397z"/>
				
					<line style="fill:none;stroke:#263238;stroke-linecap:round;stroke-linejoin:round;stroke-miterlimit:10;" x1="322.022" y1="230.214" x2="330.693" y2="230.985"/>
				
					<line style="fill:none;stroke:#263238;stroke-linecap:round;stroke-linejoin:round;stroke-miterlimit:10;" x1="321.83" y1="236.187" x2="330.308" y2="237.343"/>
				
					<line style="fill:none;stroke:#263238;stroke-linecap:round;stroke-linejoin:round;stroke-miterlimit:10;" x1="321.83" y1="240.811" x2="329.73" y2="241.968"/>
			</g>
			<g>
				<path style="fill:#FFFFFF;stroke:#263238;stroke-linecap:round;stroke-linejoin:round;stroke-miterlimit:10;" d="
					M320.391,248.291h-16.424c-1.114,0-2.017-0.903-2.017-2.017v-22.54c0-1.114,0.903-2.017,2.017-2.017h16.424
					c1.114,0,2.017,0.903,2.017,2.017v22.54C322.408,247.388,321.505,248.291,320.391,248.291z"/>
				<path style="fill:none;stroke:#263238;stroke-linecap:round;stroke-linejoin:round;stroke-miterlimit:10;" d="M313.671,201.2
					c-0.09-0.973,0.023-1.917,0.54-2.779"/>
				<path style="fill:none;stroke:#263238;stroke-linecap:round;stroke-linejoin:round;stroke-miterlimit:10;" d="M307.05,219.906
					c0,0-2.479-1.928,1.102-4.958c3.581-3.03,6.886-4.682,6.886-7.437c0-0.91-0.271-1.911-0.574-2.942"/>
				<path style="fill:none;stroke:#263238;stroke-linecap:round;stroke-linejoin:round;stroke-miterlimit:10;" d="M320.207,205.397
					c-0.616-2.32-1.741-4.886-0.487-6.976"/>
				<path style="fill:none;stroke:#263238;stroke-linecap:round;stroke-linejoin:round;stroke-miterlimit:10;" d="M312.559,219.906
					c0,0-2.479-1.928,1.102-4.958c1.142-0.966,2.256-1.792,3.243-2.559"/>
				<path style="fill:none;stroke:#263238;stroke-linecap:round;stroke-linejoin:round;stroke-miterlimit:10;" d="M318.619,219.63
					c0,0-0.826-1.377,1.102-3.305c1.928-1.928,3.03-4.132,2.754-5.784"/>
			</g>
		</g>
		<polygon style="fill:#263238;stroke:#263238;stroke-linecap:round;stroke-linejoin:round;stroke-miterlimit:10;" points="
			253.221,221.128 250.711,242.046 256.298,235.152 		"/>
	</g>
</g>
<g id="Floor">
	<path style="fill:#92E3A9;stroke:#263238;stroke-miterlimit:10;" d="M149.95,158.195"/>
</g>
</svg>
